<svg id="icons" enable-background="new 0 0 64 64" height="512" viewBox="0 0 64 64" width="512" xmlns="http://www.w3.org/2000/svg"><path d="m25.004 3.994c-11.6 0-21.01 9.41-21 21 0 11.6 9.4 21 21 21 11.59 0 21-9.4 21-20.99 0-11.601-9.41-21.01-21-21.01z" fill="#4a89dc"/><path d="m8.033 41.974c-9.381-9.381-9.379-24.57 0-33.94 9.371-9.38 24.561-9.38 33.941 0 8.889 8.889 9.35 23.03 1.35 32.459-.42.51-.871 1-1.35 1.48-.48.479-.971.93-1.48 1.35-9.43 8-23.57 7.54-32.461-1.349zm-4.029-16.981c0 11.6 9.4 21 21 21 11.59 0 21-9.4 21-20.99 0-11.6-9.41-21.009-21-21.009-11.6 0-21.01 9.409-21 20.999z" fill="#e6e9ed"/><path d="m48.834 46.003-2.83 2.83-5.51-5.51c.51-.42 1-.87 1.48-1.35.479-.48.93-.971 1.35-1.48z" fill="#ccd1d9"/><path d="m46.004 48.833 2.83-2.83 1.41-1.41 11.58 11.58c1.57 1.561 1.57 4.09 0 5.65-1.561 1.57-4.092 1.57-5.65 0l-11.58-11.58z" fill="#656d78"/><path d="m45.301 50.54c-.256 0-.514-.098-.707-.293-.391-.391-.391-1.022 0-1.414l4.24-4.243c.391-.39 1.023-.39 1.414.001.391.39.391 1.023 0 1.413l-4.242 4.243c-.195.195-.449.293-.705.293z" fill="#656d78"/><path d="m37 14.999h-23.996c-.553 0-1 .447-1 1v17.998c0 .553.447 1 1 .999l23.996.001c.553 0 1-.447 1-1v-17.998c0-.552-.447-1-1-1z" fill="#87bcf4"/><circle cx="18.504" cy="20.493" fill="#ffce54" r="1.5"/><path d="m22.766 28.344c-.02-.021-.045-.03-.064-.048-.018-.02-.025-.043-.045-.061-.031-.025-.07-.035-.104-.057-.059-.039-.115-.075-.18-.101-.059-.022-.115-.036-.178-.048-.063-.014-.123-.023-.189-.023-.064 0-.125.01-.189.023-.061.01-.119.024-.18.048-.063.025-.119.062-.178.101-.033.021-.07.03-.104.057-.02.017-.027.041-.043.059-.023.019-.049.027-.066.051l-5.701 6.652h6.264l1.967-2.462c.182.146.393.241.615.241.23 0 .461-.078.65-.24.42-.359.469-.991.107-1.411z" fill="#e6e9ed"/><path d="m18.508 22.993c-1.379 0-2.5-1.121-2.5-2.5 0-1.378 1.121-2.5 2.5-2.5s2.5 1.122 2.5 2.5c0 1.379-1.121 2.5-2.5 2.5zm0-3c-.275 0-.5.225-.5.5 0 .276.225.5.5.5s.5-.224.5-.5c0-.275-.225-.5-.5-.5z" fill="#ffce54"/><path d="m37 34.997c.145 0 .281-.035.406-.089l-7.621-9.537c-.025-.032-.063-.049-.092-.078-.023-.024-.037-.057-.066-.079-.021-.018-.049-.022-.072-.037-.061-.041-.123-.07-.189-.098-.057-.022-.109-.041-.17-.055-.064-.012-.127-.014-.191-.015-.064.001-.125.003-.189.015-.059.012-.115.032-.172.055-.066.027-.127.057-.188.098-.023.015-.051.02-.074.037-.027.022-.043.055-.066.08-.029.029-.066.045-.092.077l-7.691 9.626z" fill="#f5f7fa"/></svg>